<mxfile host="app.diagrams.net" modified="2023-07-21T07:51:28.967Z" agent="Mozilla/5.0 (Windows NT 10.0; Win64; x64) AppleWebKit/537.36 (KHTML, like Gecko) Chrome/115.0.0.0 Safari/537.36" etag="6zOs7XYKp70XUMU81kDt" version="21.6.5" type="github">
  <diagram name="Pagina-1" id="ykQzYfRRdoIbYRLLsPhe">
    <mxGraphModel dx="403" dy="643" grid="1" gridSize="10" guides="1" tooltips="1" connect="1" arrows="1" fold="1" page="1" pageScale="1" pageWidth="827" pageHeight="1169" math="0" shadow="0">
      <root>
        <mxCell id="0" />
        <mxCell id="1" parent="0" />
        <mxCell id="q1HIpzm29ED6KKzPrwwR-1" value="" style="edgeStyle=orthogonalEdgeStyle;rounded=0;orthogonalLoop=1;jettySize=auto;html=1;" edge="1" parent="1" source="q1HIpzm29ED6KKzPrwwR-2" target="q1HIpzm29ED6KKzPrwwR-5">
          <mxGeometry relative="1" as="geometry" />
        </mxCell>
        <mxCell id="q1HIpzm29ED6KKzPrwwR-2" value="SJ1 and SJ2&lt;br&gt;Closed" style="shape=parallelogram;perimeter=parallelogramPerimeter;whiteSpace=wrap;html=1;fixedSize=1;fillColor=#f5f5f5;fontColor=#333333;strokeColor=#666666;" vertex="1" parent="1">
          <mxGeometry x="20" y="50" width="120" height="60" as="geometry" />
        </mxCell>
        <mxCell id="q1HIpzm29ED6KKzPrwwR-3" value="" style="edgeStyle=orthogonalEdgeStyle;rounded=0;orthogonalLoop=1;jettySize=auto;html=1;" edge="1" parent="1" source="q1HIpzm29ED6KKzPrwwR-4" target="q1HIpzm29ED6KKzPrwwR-6">
          <mxGeometry relative="1" as="geometry" />
        </mxCell>
        <mxCell id="q1HIpzm29ED6KKzPrwwR-4" value="SJ1 and SJ2&lt;br style=&quot;border-color: var(--border-color);&quot;&gt;Closed" style="shape=parallelogram;perimeter=parallelogramPerimeter;whiteSpace=wrap;html=1;fixedSize=1;fillColor=#f5f5f5;fontColor=#333333;strokeColor=#666666;" vertex="1" parent="1">
          <mxGeometry x="20" y="290" width="120" height="60" as="geometry" />
        </mxCell>
        <mxCell id="q1HIpzm29ED6KKzPrwwR-5" value="CM1 and CM2&amp;nbsp;&lt;br&gt;loaded at&lt;br&gt;&amp;gt;7.0 bar&lt;br&gt;&amp;amp;&amp;amp; &amp;lt;8 bar" style="shape=parallelogram;perimeter=parallelogramPerimeter;whiteSpace=wrap;html=1;fixedSize=1;fillColor=#f5f5f5;fontColor=#333333;strokeColor=#666666;" vertex="1" parent="1">
          <mxGeometry x="20" y="160" width="120" height="80" as="geometry" />
        </mxCell>
        <mxCell id="q1HIpzm29ED6KKzPrwwR-6" value="Wait Feedback&lt;br&gt;from PC&lt;br&gt;&amp;amp; set AMI state" style="shape=parallelogram;perimeter=parallelogramPerimeter;whiteSpace=wrap;html=1;fixedSize=1;fillColor=#f5f5f5;fontColor=#333333;strokeColor=#666666;" vertex="1" parent="1">
          <mxGeometry x="20" y="400" width="120" height="60" as="geometry" />
        </mxCell>
        <mxCell id="q1HIpzm29ED6KKzPrwwR-7" value="" style="endArrow=none;dashed=1;html=1;rounded=0;" edge="1" parent="1">
          <mxGeometry width="50" height="50" relative="1" as="geometry">
            <mxPoint x="190" y="930" as="sourcePoint" />
            <mxPoint x="190" as="targetPoint" />
          </mxGeometry>
        </mxCell>
        <mxCell id="q1HIpzm29ED6KKzPrwwR-8" value="MANUAL STEPS" style="text;html=1;align=center;verticalAlign=middle;resizable=0;points=[];autosize=1;strokeColor=none;fillColor=none;" vertex="1" parent="1">
          <mxGeometry x="20" y="10" width="120" height="30" as="geometry" />
        </mxCell>
        <mxCell id="q1HIpzm29ED6KKzPrwwR-9" value="" style="endArrow=none;dashed=1;html=1;rounded=0;" edge="1" parent="1">
          <mxGeometry width="50" height="50" relative="1" as="geometry">
            <mxPoint x="180" y="920" as="sourcePoint" />
            <mxPoint x="180" as="targetPoint" />
          </mxGeometry>
        </mxCell>
        <mxCell id="q1HIpzm29ED6KKzPrwwR-10" value="" style="endArrow=classic;html=1;rounded=0;exitX=0.5;exitY=1;exitDx=0;exitDy=0;entryX=0.5;entryY=0;entryDx=0;entryDy=0;" edge="1" parent="1" source="q1HIpzm29ED6KKzPrwwR-5" target="q1HIpzm29ED6KKzPrwwR-4">
          <mxGeometry width="50" height="50" relative="1" as="geometry">
            <mxPoint x="170" y="300" as="sourcePoint" />
            <mxPoint x="220" y="250" as="targetPoint" />
          </mxGeometry>
        </mxCell>
      </root>
    </mxGraphModel>
  </diagram>
</mxfile>
